<svg width="27" height="22" viewBox="0 0 27 22" fill="none" xmlns="http://www.w3.org/2000/svg">
<path d="M16.4762 7.28401C17.2209 7.02389 18.0222 6.88235 18.8571 6.88235C19.6755 6.88235 20.4616 7.01835 21.1939 7.26873M21.1939 7.26873C23.9912 8.2253 26 10.8514 26 13.9411C26 17.8396 22.802 21 18.8571 21H6.35714C3.39847 21 1 18.6298 1 15.7059C1 12.782 3.39847 10.4117 6.35714 10.4117C6.71229 10.4117 7.05937 10.4459 7.3952 10.5111M21.1939 7.26873C20.7964 3.74214 17.7699 1 14.0953 1C10.1504 1 6.95237 4.16034 6.95237 8.05883C6.95237 8.92113 7.10882 9.74725 7.3952 10.5111M7.3952 10.5111C8.10074 10.648 8.7566 10.9218 9.33334 11.3033" stroke="white" stroke-width="1.5" stroke-linecap="round"/>
</svg>
