<svg width="26" height="26" viewBox="0 0 26 26" fill="none" xmlns="http://www.w3.org/2000/svg">
<path d="M1 12.6667C1 7.16694 1 4.41709 2.70855 2.70855C4.41709 1 7.16694 1 12.6667 1C18.1663 1 20.9163 1 22.6248 2.70855C24.3333 4.41709 24.3333 7.16694 24.3333 12.6667C24.3333 18.1663 24.3333 20.9163 22.6248 22.6248C20.9163 24.3333 18.1663 24.3333 12.6667 24.3333C7.16694 24.3333 4.41709 24.3333 2.70855 22.6248C1 20.9163 1 18.1663 1 12.6667Z" stroke="white" stroke-width="1.5"/>
<path d="M17.3333 10.3333C18.622 10.3333 19.6667 9.28865 19.6667 7.99999C19.6667 6.71133 18.622 5.66666 17.3333 5.66666C16.0447 5.66666 15 6.71133 15 7.99999C15 9.28865 16.0447 10.3333 17.3333 10.3333Z" stroke="white" stroke-width="1.5"/>
<path d="M1 13.2501L3.04352 11.4621C4.10667 10.5319 5.70899 10.5852 6.7079 11.5841L11.7126 16.5888C12.5143 17.3906 13.7764 17.4999 14.7041 16.8479L15.052 16.6035C16.3869 15.6652 18.1931 15.774 19.4059 16.8655L23.1667 20.2501" stroke="white" stroke-width="1.5" stroke-linecap="round"/>
</svg>
