<svg width="24" height="22" viewBox="0 0 24 22" fill="none" xmlns="http://www.w3.org/2000/svg">
<path d="M1.98845 4.78548H21.2602M3.19294 1H20.0557M5.4766 21.1892H17.7721C19.0044 21.1892 19.6205 21.1892 20.1092 20.9474C20.5396 20.7344 20.8999 20.3926 21.1451 19.9652C21.4234 19.4799 21.4847 18.8377 21.6073 17.5531L22.147 11.9007C22.257 10.7468 22.3121 10.1699 22.1314 9.72401C21.9727 9.33234 21.6926 9.00818 21.3363 8.80363C20.9308 8.57095 20.3773 8.57095 19.2705 8.57095H3.97823C2.87138 8.57095 2.31795 8.57095 1.91239 8.80363C1.55614 9.00818 1.27605 9.33234 1.11731 9.72401C0.936609 10.1699 0.991678 10.7468 1.10182 11.9007L1.64138 17.5531C1.764 18.8377 1.8253 19.4799 2.1036 19.9652C2.34871 20.3926 2.7092 20.7344 3.13956 20.9474C3.62817 21.1892 4.24431 21.1892 5.4766 21.1892ZM15.2378 14.8801C15.2378 16.2739 13.62 17.4037 11.6243 17.4037C9.62872 17.4037 8.01089 16.2739 8.01089 14.8801C8.01089 13.4863 9.62872 12.3564 11.6243 12.3564C13.62 12.3564 15.2378 13.4863 15.2378 14.8801Z" stroke="white" stroke-width="1.6" stroke-linecap="round" stroke-linejoin="round"/>
</svg>
