<svg width="33" height="34" viewBox="0 0 33 34" fill="none" xmlns="http://www.w3.org/2000/svg">
<path fill-rule="evenodd" clip-rule="evenodd" d="M29.3482 17.1301C29.3797 17.0381 29.3838 16.9396 29.3588 16.8456C28.765 14.6199 17.7406 8.2933 14.2764 7.2296C13.3739 6.95239 12.72 7.06402 12.3361 7.56039C11.2233 8.99707 13.5214 13.4645 14.8625 15.8005L21.8105 16.0445C22.2131 16.0586 22.5281 16.3973 22.514 16.8011C22.4999 17.2049 22.1622 17.5207 21.7596 17.5066L14.745 17.2596C13.2353 19.5261 10.7274 23.7127 11.7219 25.1998C11.7591 25.2556 11.8 25.3081 11.8444 25.3558C12.2117 25.7509 12.8134 25.8547 13.6338 25.6648C17.1614 24.848 28.5996 19.3115 29.3482 17.1301Z" fill="#DDDDE4"/>
</svg>
