<svg width="62" height="48" viewBox="0 0 62 48" fill="none" xmlns="http://www.w3.org/2000/svg">
<path d="M47.6923 0H14.3077C6.40577 0 0 4.95931 0 11.0769V36.9231C0 43.0407 6.40577 48 14.3077 48H47.6923C55.5942 48 62 43.0407 62 36.9231V11.0769C62 4.95931 55.5942 0 47.6923 0Z" fill="#2B2D30"/>
<mask id="path-2-inside-1_6_84" fill="white">
<path d="M37.5379 24.9498H36.8254C36.7347 24.951 36.6479 24.9868 36.5828 25.05C36.5177 25.1131 36.4793 25.1988 36.4755 25.2895C36.3879 26.563 35.8202 27.7559 34.8871 28.627C33.9539 29.4982 32.7249 29.9827 31.4484 29.9827C30.1718 29.9827 28.9428 29.4982 28.0097 28.627C27.0766 27.7559 26.5089 26.563 26.4213 25.2895C26.4175 25.1988 26.379 25.1131 26.314 25.05C26.2489 24.9868 26.1621 24.951 26.0714 24.9498H25.3589C25.3108 24.9496 25.2631 24.9591 25.2188 24.9777C25.1744 24.9963 25.1343 25.0237 25.1008 25.0583C25.0673 25.0928 25.0411 25.1337 25.0239 25.1786C25.0066 25.2235 24.9985 25.2715 25.0003 25.3195C25.0894 26.8425 25.7142 28.2849 26.7641 29.3917C27.814 30.4985 29.2214 31.1985 30.7375 31.3679V34.6462C30.7375 34.74 30.7747 34.83 30.8411 34.8964C30.9075 34.9628 30.9975 35 31.0913 35H31.7999C31.8937 35 31.9837 34.9628 32.0501 34.8964C32.1165 34.83 32.1538 34.74 32.1538 34.6462V31.3679C33.6698 31.1983 35.0771 30.4983 36.127 29.3915C37.1768 28.2847 37.8016 26.8424 37.891 25.3195C37.8927 25.2719 37.8848 25.2245 37.8679 25.1799C37.8509 25.1354 37.8253 25.0947 37.7924 25.0603C37.7594 25.0258 37.72 24.9983 37.6763 24.9793C37.6326 24.9604 37.5855 24.9503 37.5379 24.9498Z"/>
</mask>
<path d="M37.5379 24.9498H36.8254C36.7347 24.951 36.6479 24.9868 36.5828 25.05C36.5177 25.1131 36.4793 25.1988 36.4755 25.2895C36.3879 26.563 35.8202 27.7559 34.8871 28.627C33.9539 29.4982 32.7249 29.9827 31.4484 29.9827C30.1718 29.9827 28.9428 29.4982 28.0097 28.627C27.0766 27.7559 26.5089 26.563 26.4213 25.2895C26.4175 25.1988 26.379 25.1131 26.314 25.05C26.2489 24.9868 26.1621 24.951 26.0714 24.9498H25.3589C25.3108 24.9496 25.2631 24.9591 25.2188 24.9777C25.1744 24.9963 25.1343 25.0237 25.1008 25.0583C25.0673 25.0928 25.0411 25.1337 25.0239 25.1786C25.0066 25.2235 24.9985 25.2715 25.0003 25.3195C25.0894 26.8425 25.7142 28.2849 26.7641 29.3917C27.814 30.4985 29.2214 31.1985 30.7375 31.3679V34.6462C30.7375 34.74 30.7747 34.83 30.8411 34.8964C30.9075 34.9628 30.9975 35 31.0913 35H31.7999C31.8937 35 31.9837 34.9628 32.0501 34.8964C32.1165 34.83 32.1538 34.74 32.1538 34.6462V31.3679C33.6698 31.1983 35.0771 30.4983 36.127 29.3915C37.1768 28.2847 37.8016 26.8424 37.891 25.3195C37.8927 25.2719 37.8848 25.2245 37.8679 25.1799C37.8509 25.1354 37.8253 25.0947 37.7924 25.0603C37.7594 25.0258 37.72 24.9983 37.6763 24.9793C37.6326 24.9604 37.5855 24.9503 37.5379 24.9498Z" fill="white"/>
<path d="M36.8254 24.9498V22.9498H36.8129L36.8004 22.95L36.8254 24.9498ZM36.4755 25.2895L38.4708 25.4267L38.4726 25.4004L38.4737 25.3741L36.4755 25.2895ZM26.4213 25.2895L24.4231 25.3741L24.4242 25.4004L24.426 25.4267L26.4213 25.2895ZM26.0714 24.9498L26.0964 22.95L26.0839 22.9498H26.0714V24.9498ZM25.3589 24.9498L25.3488 26.9498H25.3589V24.9498ZM25.0003 25.3195L23.0015 25.3905L23.0023 25.4135L23.0037 25.4365L25.0003 25.3195ZM30.7375 31.3679H32.7375V29.5789L30.9596 29.3802L30.7375 31.3679ZM30.7375 34.6462H32.7375H30.7375ZM31.7999 35V37V35ZM32.1538 34.6462H34.1538H32.1538ZM32.1538 31.3679L31.9315 29.3803L30.1538 29.5791V31.3679H32.1538ZM37.891 25.3195L39.8875 25.4367L39.8889 25.4136L39.8897 25.3906L37.891 25.3195ZM37.5379 24.9498V22.9498H36.8254V24.9498V26.9498H37.5379V24.9498ZM36.8254 24.9498L36.8004 22.95C36.1983 22.9575 35.6219 23.1954 35.1898 23.6148L36.5828 25.05L37.9757 26.4851C37.6738 26.7782 37.2711 26.9444 36.8504 26.9497L36.8254 24.9498ZM36.5828 25.05L35.1898 23.6148C34.7577 24.0342 34.5027 24.6032 34.4773 25.2048L36.4755 25.2895L38.4737 25.3741C38.4559 25.7945 38.2777 26.1921 37.9757 26.4851L36.5828 25.05ZM36.4755 25.2895L34.4802 25.1522C34.4274 25.9203 34.085 26.6397 33.5222 27.1651L34.8871 28.627L36.2519 30.0889C37.5554 28.872 38.3484 27.2057 38.4708 25.4267L36.4755 25.2895ZM34.8871 28.627L33.5222 27.1651C32.9595 27.6905 32.2183 27.9827 31.4484 27.9827V29.9827V31.9827C33.2316 31.9827 34.9484 31.3059 36.2519 30.0889L34.8871 28.627ZM31.4484 29.9827V27.9827C30.6785 27.9827 29.9373 27.6905 29.3745 27.1651L28.0097 28.627L26.6449 30.0889C27.9484 31.3059 29.6651 31.9827 31.4484 31.9827V29.9827ZM28.0097 28.627L29.3745 27.1651C28.8118 26.6397 28.4694 25.9203 28.4166 25.1522L26.4213 25.2895L24.426 25.4267C24.5484 27.2057 25.3414 28.872 26.6449 30.0889L28.0097 28.627ZM26.4213 25.2895L28.4195 25.2048C28.394 24.6032 28.139 24.0342 27.7069 23.6148L26.314 25.05L24.921 26.4851C24.6191 26.1921 24.4409 25.7945 24.4231 25.3741L26.4213 25.2895ZM26.314 25.05L27.7069 23.6148C27.2748 23.1954 26.6985 22.9575 26.0964 22.95L26.0714 24.9498L26.0464 26.9497C25.6257 26.9444 25.2229 26.7782 24.921 26.4851L26.314 25.05ZM26.0714 24.9498V22.9498H25.3589V24.9498V26.9498H26.0714V24.9498ZM25.3589 24.9498L25.369 22.9499C25.0514 22.9483 24.7368 23.0108 24.444 23.1339L25.2188 24.9777L25.9935 26.8216C25.7894 26.9073 25.5701 26.9509 25.3488 26.9498L25.3589 24.9498ZM25.2188 24.9777L24.444 23.1339C24.1513 23.2569 23.8863 23.4378 23.6652 23.6657L25.1008 25.0583L26.5364 26.4508C26.3822 26.6097 26.1976 26.7358 25.9935 26.8216L25.2188 24.9777ZM25.1008 25.0583L23.6652 23.6657C23.4441 23.8937 23.2713 24.164 23.1573 24.4604L25.0239 25.1786L26.8904 25.8969C26.8109 26.1035 26.6905 26.2919 26.5364 26.4508L25.1008 25.0583ZM25.0239 25.1786L23.1573 24.4604C23.0432 24.7568 22.9902 25.0731 23.0015 25.3905L25.0003 25.3195L26.999 25.2486C27.0069 25.4698 26.9699 25.6903 26.8904 25.8969L25.0239 25.1786ZM25.0003 25.3195L23.0037 25.4365C23.1204 27.4304 23.9384 29.3189 25.313 30.7681L26.7641 29.3917L28.2151 28.0153C27.49 27.2508 27.0584 26.2545 26.9968 25.2026L25.0003 25.3195ZM26.7641 29.3917L25.313 30.7681C26.6876 32.2172 28.5303 33.1337 30.5154 33.3555L30.7375 31.3679L30.9596 29.3802C29.9124 29.2632 28.9403 28.7798 28.2151 28.0153L26.7641 29.3917ZM30.7375 31.3679H28.7375V34.6462H30.7375H32.7375V31.3679H30.7375ZM30.7375 34.6462H28.7375C28.7375 35.2705 28.9855 35.8692 29.4269 36.3106L30.8411 34.8964L32.2553 33.4822C32.564 33.7909 32.7375 34.2096 32.7375 34.6462H30.7375ZM30.8411 34.8964L29.4269 36.3106C29.8683 36.7521 30.4671 37 31.0913 37V35V33C31.5279 33 31.9466 33.1735 32.2553 33.4822L30.8411 34.8964ZM31.0913 35V37H31.7999V35V33H31.0913V35ZM31.7999 35V37C32.4242 37 33.0229 36.7521 33.4643 36.3106L32.0501 34.8964L30.6359 33.4822C30.9446 33.1735 31.3633 33 31.7999 33V35ZM32.0501 34.8964L33.4643 36.3106C33.9058 35.8692 34.1538 35.2705 34.1538 34.6462H32.1538H30.1538C30.1538 34.2096 30.3272 33.7909 30.6359 33.4822L32.0501 34.8964ZM32.1538 34.6462H34.1538V31.3679H32.1538H30.1538V34.6462H32.1538ZM32.1538 31.3679L32.3761 33.3555C34.361 33.1335 36.2035 32.217 37.578 30.7679L36.127 29.3915L34.6759 28.0151C33.9508 28.7796 32.9787 29.2631 31.9315 29.3803L32.1538 31.3679ZM36.127 29.3915L37.578 30.7679C38.9525 29.3188 39.7706 27.4305 39.8875 25.4367L37.891 25.3195L35.8944 25.2024C35.8327 26.2543 35.4011 27.2506 34.6759 28.0151L36.127 29.3915ZM37.891 25.3195L39.8897 25.3906C39.9009 25.0763 39.849 24.7629 39.7372 24.469L37.8679 25.1799L35.9985 25.8909C35.9206 25.686 35.8844 25.4676 35.8922 25.2485L37.891 25.3195ZM37.8679 25.1799L39.7372 24.469C39.6254 24.175 39.456 23.9064 39.2387 23.6789L37.7924 25.0603L36.346 26.4416C36.1946 26.283 36.0764 26.0958 35.9985 25.8909L37.8679 25.1799ZM37.7924 25.0603L39.2387 23.6789C39.0215 23.4515 38.7609 23.2698 38.4724 23.1446L37.6763 24.9793L36.8801 26.814C36.679 26.7268 36.4974 26.6001 36.346 26.4416L37.7924 25.0603ZM37.6763 24.9793L38.4724 23.1446C38.1839 23.0194 37.8733 22.9532 37.5588 22.9499L37.5379 24.9498L37.517 26.9497C37.2977 26.9474 37.0812 26.9013 36.8801 26.814L37.6763 24.9793Z" fill="white" mask="url(#path-2-inside-1_6_84)"/>
<path d="M31.4506 17C32.8998 17 34.0745 18.1748 34.0746 19.624V24.9492C34.0745 26.3985 32.8998 27.5732 31.4506 27.5732C30.0014 27.5731 28.8267 26.3984 28.8265 24.9492V19.624C28.8267 18.1749 30.0014 17.0001 31.4506 17Z" fill="white" stroke="white" stroke-width="2"/>
</svg>
